<?xml version="1.0" standalone="no"?>
<!DOCTYPE svg PUBLIC "-//W3C//DTD SVG 1.1//EN" "http://www.w3.org/Graphics/SVG/1.1/DTD/svg11.dtd" >
<svg xmlns="http://www.w3.org/2000/svg" xmlns:xlink="http://www.w3.org/1999/xlink" version="1.1">
<metadata></metadata>
<defs>
<font id="didact_gothicregular" horiz-adv-x="1148" >
<font-face units-per-em="2048" ascent="1638" descent="-410" />
<missing-glyph horiz-adv-x="456" />
<glyph horiz-adv-x="0" />
<glyph unicode="&#xd;" horiz-adv-x="681" />
<glyph unicode=" "  horiz-adv-x="456" />
<glyph unicode="&#x09;" horiz-adv-x="456" />
<glyph unicode="&#xa0;" horiz-adv-x="456" />
<glyph unicode="!" horiz-adv-x="477" d="M129 96q0 47 32 79t79 32t78.5 -32t31.5 -79t-32.5 -79.5t-77.5 -32.5t-78 32.5t-33 79.5zM168 340v1057h139v-1057h-139z" />
<glyph unicode="&#x22;" horiz-adv-x="675" d="M121 868v529h139v-529h-139zM416 868v529h139v-529h-139z" />
<glyph unicode="#" horiz-adv-x="1105" d="M80 340v139h196l23 361h-178v141h188l21 336h137l-21 -336h254l21 336h139l-20 -336h186v-141h-197l-22 -361h178v-139h-186l-23 -340h-139l22 340h-253l-23 -340h-137l22 340h-188zM414 479h254l22 361h-254z" />
<glyph unicode="$" horiz-adv-x="970" d="M72 395l125 64q27 -68 90 -111t151 -49v328q-53 10 -91 20t-88 31.5t-82 47.5t-54.5 70t-22.5 97q0 127 92.5 206t245.5 93v205h84v-203q254 -10 344 -225l-125 -64q-61 152 -219 160v-313q76 -12 130.5 -28.5t116.5 -47.5t95 -83t33 -122q0 -127 -106.5 -207t-268.5 -92 v-172h-84v170q-127 4 -225 63.5t-141 161.5zM242 893q0 -57 52 -85t144 -42v297q-96 -12 -146 -57t-50 -113zM522 301q106 10 171 57.5t65 112.5q0 25 -8.5 44.5t-32 33.5t-36.5 22.5t-53 17.5t-50.5 11t-55.5 10v-309z" />
<glyph unicode="%" horiz-adv-x="1087" d="M80 868.5q0 77.5 54 131t130 53.5t130.5 -53.5t54.5 -131t-54.5 -131t-130.5 -53.5t-130 53.5t-54 131zM100 82l811 967l76 -68l-811 -965zM168 868q0 -41 28.5 -68.5t67.5 -27.5t67.5 27.5t28.5 68.5t-28.5 69t-67.5 28t-67.5 -28t-28.5 -69zM639 196.5q0 77.5 53 131 t131 53.5t131.5 -53.5t53.5 -131t-53.5 -131t-131.5 -53.5t-131 53.5t-53 131zM727 197q0 -41 27.5 -69t68.5 -28t69 28t28 69t-28 68.5t-69 27.5t-68.5 -27.5t-27.5 -68.5z" />
<glyph unicode="&#x26;" horiz-adv-x="1097" d="M61 391q0 68 42 144.5t89.5 130t129.5 135.5l-52 73q-78 111 -77 297q0 113 87 180.5t195 67.5q106 0 183 -61.5t77 -173.5q0 -162 -223 -389l279 -398q49 106 83 256l154 -32q-39 -205 -135 -369l176 -252h-186l-86 123q-141 -147 -334 -148q-166 0 -284 122t-118 294z M217 395q0 -115 71.5 -196.5t174.5 -81.5q133 0 242 139l-302 430q-92 -94 -139 -160.5t-47 -130.5zM348 1167q0 -123 82 -254q150 160 150 267q0 41 -35 70.5t-70 29.5q-37 0 -82 -36t-45 -77z" />
<glyph unicode="'" horiz-adv-x="380" d="M121 868v529h139v-529h-139z" />
<glyph unicode="(" horiz-adv-x="481" d="M88 696q0 305 85 518t224 213v-139q-53 -31 -103 -204t-50 -388t50 -386t103 -201v-142q-139 0 -224 212t-85 517z" />
<glyph unicode=")" horiz-adv-x="481" d="M84 -33v142q53 31 103.5 203.5t50.5 387.5t-50.5 386t-103.5 202v139q139 0 224 -210.5t85 -516.5q0 -307 -85 -520t-224 -213z" />
<glyph unicode="*" horiz-adv-x="712" d="M94 1114v96h178l-88 154l84 47l90 -154l88 154l84 -47l-88 -154h176v-96h-178l90 -156l-84 -49l-88 154l-90 -154l-84 49l90 156h-180z" />
<glyph unicode="+" horiz-adv-x="907" d="M78 436v113h319v319h113v-319h319v-113h-319v-319h-113v319h-319z" />
<glyph unicode="," horiz-adv-x="419" d="M98 96q0 47 33 79t78 32t77.5 -32t32.5 -79q0 -70 -19 -131t-46 -98t-53.5 -64.5t-44.5 -40.5l-21 -10l-35 21q78 78 109 211q-45 0 -78 32.5t-33 79.5z" />
<glyph unicode="-" horiz-adv-x="681" d="M115 436v113h452v-113h-452z" />
<glyph unicode="." horiz-adv-x="417" d="M98 96q0 47 33 79t78 32t77.5 -32t32.5 -79t-32.5 -79.5t-77.5 -32.5t-78 32.5t-33 79.5z" />
<glyph unicode="/" horiz-adv-x="772" d="M70 0l508 1397h127l-508 -1397h-127z" />
<glyph unicode="0" d="M80 698.5q0 329.5 143.5 529t331.5 199.5t331.5 -198.5t143.5 -530.5q0 -334 -142.5 -532.5t-330.5 -198.5t-332.5 201t-144.5 530.5zM217 698q0 -252 101.5 -428t236.5 -176t235.5 176t100.5 428t-100.5 427t-235.5 175t-236.5 -175t-101.5 -427z" />
<glyph unicode="1" d="M326 877l307 520h151v-1397h-151v1053l-221 -209z" />
<glyph unicode="2" d="M127 1188q98 127 191.5 183t226.5 56q197 0 310.5 -98t113.5 -280q0 -141 -75 -249t-269 -251q-115 -86 -206 -197.5t-114 -212.5h678v-139h-840v88q0 143 107.5 283.5t304.5 298.5q139 113 197.5 192.5t58.5 186.5q0 240 -266 239q-98 0 -164 -46t-141 -150z" />
<glyph unicode="3" d="M106 162l109 86q47 -66 126 -104t159 -38q152 0 251 63.5t99 211.5q0 90 -42 154.5t-112.5 96.5t-139.5 45t-144 13v137q145 0 268 68t123 172q0 98 -65.5 160.5t-186.5 62.5q-70 0 -138.5 -34.5t-113.5 -100.5l-111 86q68 86 168.5 136t194.5 50q170 0 287.5 -99 t117.5 -261q0 -88 -64.5 -166t-170.5 -131q283 -117 283 -389q0 -197 -154 -305.5t-350 -108.5q-102 0 -214 54.5t-180 140.5z" />
<glyph unicode="4" d="M111 360v152l618 885h154v-885h137v-152h-137v-360h-154v360h-618zM274 512h455v647z" />
<glyph unicode="5" d="M94 152l109 75q102 -133 327 -133q150 0 249.5 106.5t99.5 250.5q0 158 -86 256t-252 98q-35 0 -65 -1t-57.5 -4t-45 -4t-41 -8.5t-32.5 -8.5t-32.5 -11t-27.5 -11t-32 -14.5t-32 -15.5v670h709v-142h-557v-348q113 25 213 25q231 0 353 -122t122 -359 q0 -215 -132 -349.5t-358 -134.5q-285 1 -432 185z" />
<glyph unicode="6" d="M80 461q0 201 45 366.5t117.5 272t169 181.5t190.5 107.5t191 38.5v-131q-393 -57 -519 -446q133 102 281 102q182 0 328.5 -143t146.5 -348t-147.5 -349.5t-329.5 -144.5t-327.5 143.5t-145.5 350.5zM219 460.5q0 -155.5 100.5 -261t235.5 -105.5t236.5 105.5t101.5 261 t-101.5 259t-236.5 103.5t-235.5 -103.5t-100.5 -259z" />
<glyph unicode="7" d="M133 1255v142h844l-475 -1397h-166l428 1255h-631z" />
<glyph unicode="8" d="M80 399q0 248 219 369q-160 102 -160 295q0 174 126 269t290 95t290 -95t126 -269q0 -193 -160 -295q219 -121 219 -369q0 -201 -141 -316.5t-331.5 -115.5t-334 116t-143.5 316zM227 399.5q0 -149.5 92.5 -222.5t235.5 -73t234.5 72t91.5 223.5t-91.5 223t-234.5 71.5 t-235.5 -72.5t-92.5 -222zM289 1063q0 -115 73.5 -173.5t192.5 -58.5t191.5 56.5t72.5 175.5q0 117 -72.5 172t-191.5 55q-121 0 -193.5 -55t-72.5 -172z" />
<glyph unicode="9" d="M80 936q0 205 146.5 348t330.5 143q182 0 327.5 -143t145.5 -348q0 -250 -67.5 -442.5t-177 -301t-227.5 -164t-241 -61.5v133q395 57 521 445q-129 -100 -283 -101q-182 0 -328.5 143.5t-146.5 348.5zM217 936q0 -156 101.5 -260.5t236.5 -104.5t235.5 104.5 t100.5 260.5t-100.5 261.5t-235.5 105.5t-236.5 -105.5t-101.5 -261.5z" />
<glyph unicode=":" horiz-adv-x="450" d="M115 96q0 47 32.5 79t77.5 32t78 -32t33 -79t-33 -79.5t-78 -32.5t-77.5 32.5t-32.5 79.5zM115 856q0 45 32.5 78t77.5 33t78 -33t33 -78q0 -47 -33 -80t-78 -33t-77.5 33t-32.5 80z" />
<glyph unicode=";" horiz-adv-x="450" d="M115 96q0 47 32.5 79t77.5 32t78 -32t33 -79q0 -70 -19.5 -131t-46 -98t-53.5 -64.5t-45 -40.5l-20 -10l-35 21q78 78 108 211q-45 0 -77.5 32.5t-32.5 79.5zM115 856q0 45 32.5 78t77.5 33t78 -33t33 -78q0 -47 -33 -80t-78 -33t-77.5 33t-32.5 80z" />
<glyph unicode="&#x3c;" horiz-adv-x="985" d="M53 584l735 616l91 -108l-607 -508l607 -508l-91 -109z" />
<glyph unicode="=" horiz-adv-x="817" d="M133 324v112h551v-112h-551zM133 549v110h551v-110h-551z" />
<glyph unicode="&#x3e;" horiz-adv-x="985" d="M106 76l607 508l-607 508l91 108l735 -616l-735 -617z" />
<glyph unicode="?" horiz-adv-x="944" d="M59 1145q45 129 155 205.5t235 76.5q176 0 295.5 -113.5t119.5 -281.5q0 -111 -38 -189.5t-91 -126.5t-106.5 -93t-91 -116t-37.5 -167h-140q0 111 38 189.5t91.5 127t106.5 93.5t91 115.5t38 166.5q0 115 -75 191.5t-201 76.5q-92 0 -161 -51t-100 -145zM317 96 q0 47 32 79t79 32t80 -33t33 -78q0 -47 -33 -79.5t-80 -32.5q-45 0 -78 32.5t-33 79.5z" />
<glyph unicode="@" horiz-adv-x="1538" d="M82 633q0 158 62.5 307.5t159.5 253.5t219 166.5t241 62.5q348 0 526 -231t178 -637q0 -178 -65.5 -309t-208.5 -131q-145 0 -201 108q-86 -110 -225 -110q-160 0 -245 120.5t-85 335.5q0 211 84 329t242 118q115 0 199 -78v43h127v-598q0 -66 34.5 -97.5t69.5 -31.5 q63 0 98 92t35 242q0 336 -138 522t-425 186q-190 0 -366.5 -198.5t-176.5 -458.5q0 -373 166 -592t451 -219q127 0 270 53l55 -119q-168 -61 -325 -61q-338 0 -547 254t-209 678zM563 563q0 -137 54.5 -231t146.5 -94q90 0 144.5 93t54.5 232q0 133 -54.5 229.5 t-144.5 96.5t-145.5 -96.5t-55.5 -229.5z" />
<glyph unicode="A" horiz-adv-x="1179" d="M2 0l506 1393v4h166l-2 -4l508 -1393h-164l-144 391h-565l-141 -391h-164zM354 518h473l-237 649z" />
<glyph unicode="B" horiz-adv-x="1177" d="M162 0v1397h413q180 0 304.5 -98.5t124.5 -251.5q0 -174 -154 -275q248 -106 248 -362q0 -135 -74 -230.5t-180.5 -137.5t-231.5 -42h-450zM315 127h293q139 0 230.5 73.5t91.5 209t-91 209t-231 73.5h-293v-565zM315 821h260q123 0 192 67.5t69 158t-68 156t-193 65.5 h-260v-447z" />
<glyph unicode="C" horiz-adv-x="1173" d="M90 696q0 297 165 514t398 217q254 0 441 -286l-121 -86q-141 233 -319.5 233t-293 -176t-114.5 -415.5t114.5 -413.5t292.5 -174q193 0 332 258l133 -72q-190 -328 -465 -328q-233 0 -398 216t-165 513z" />
<glyph unicode="D" horiz-adv-x="1249" d="M162 0v1397h305q135 0 257 -42t220 -124t155.5 -220.5t57.5 -314.5t-57.5 -313t-155.5 -219t-219 -123t-258 -41h-305zM315 139h107q274 0 423.5 137.5t149.5 420t-149.5 420.5t-423.5 138h-107v-1116z" />
<glyph unicode="E" horiz-adv-x="1030" d="M162 0v1397h782v-129h-629v-447h492v-125h-492v-569h635v-127h-788z" />
<glyph unicode="F" horiz-adv-x="980" d="M162 0v1397h782v-129h-629v-447h492v-125h-492v-696h-153z" />
<glyph unicode="G" horiz-adv-x="1243" d="M90 696q0 301 162 516t412 215q158 0 257 -70.5t193 -215.5l-123 -86q-70 117 -141.5 175t-185.5 58q-188 0 -303 -175t-115 -417q0 -244 101.5 -415.5t277.5 -171.5q92 0 152.5 16t116.5 65.5t83 149.5t27 256h-330v127h481v-127q0 -330 -136 -479.5t-394 -149.5 q-231 0 -383 214t-152 515z" />
<glyph unicode="H" horiz-adv-x="1245" d="M162 0v1397h153v-604h615v604h153v-1397h-153v666h-615v-666h-153z" />
<glyph unicode="I" horiz-adv-x="518" d="M109 0v135h73v1127h-73v135h301v-135h-74v-1127h74v-135h-301z" />
<glyph unicode="J" horiz-adv-x="1003" d="M25 260l129 62q31 -98 99.5 -154.5t162.5 -56.5q283 0 282 309v977h154v-977q0 -205 -125 -329t-307 -124q-125 0 -232.5 81t-162.5 212z" />
<glyph unicode="K" horiz-adv-x="1091" d="M162 0v1397h153v-658l551 658h199l-520 -621l542 -776h-186l-459 655l-127 -151v-504h-153z" />
<glyph unicode="L" horiz-adv-x="892" d="M162 0v1397h153v-1270h547v-127h-700z" />
<glyph unicode="M" horiz-adv-x="1624" d="M162 0v1397h166l485 -1194l483 1194h166v-1397h-151v1030l-416 -1030h-164l-416 1028v-1028h-153z" />
<glyph unicode="N" horiz-adv-x="1288" d="M162 0v1397h153l660 -1145v1145h151v-1397h-151l-660 1141v-1141h-153z" />
<glyph unicode="O" horiz-adv-x="1372" d="M86 696q0 293 181.5 512t419 219t418.5 -219t181 -512t-181 -511t-418.5 -218t-419 218t-181.5 511zM248 696q0 -233 128 -410t310 -177t310 177t128 410q0 236 -129 414t-309 178t-309 -178t-129 -414z" />
<glyph unicode="P" horiz-adv-x="1140" d="M162 0v1397h446q125 0 232.5 -42t182.5 -138.5t75 -231.5t-74 -230.5t-180.5 -137.5t-231.5 -42h-297v-575h-153zM315 705h293q139 0 230.5 72.5t91.5 207.5t-91 209t-231 74h-293v-563z" />
<glyph unicode="Q" horiz-adv-x="1372" d="M86 696q0 293 181.5 512t419 219t418.5 -219t181 -512q0 -301 -188 -520l147 -147l-90 -88l-149 147q-150 -121 -320 -121q-238 0 -419 218t-181 511zM248 696q0 -233 128 -410t310 -177q121 0 219 79l-155 154l90 90l153 -151q131 174 131 415q0 236 -129 414t-309 178 t-309 -178t-129 -414z" />
<glyph unicode="R" horiz-adv-x="1189" d="M162 0v1397h446q125 0 232.5 -42t182.5 -138.5t75 -231.5q0 -156 -91.5 -254t-234.5 -135l344 -596h-170l-332 575h-2h-297v-575h-153zM315 705h293q139 0 230.5 72.5t91.5 207.5t-91 209t-231 74h-293v-563z" />
<glyph unicode="S" horiz-adv-x="1130" d="M63 256l121 86q61 -102 157.5 -167.5t197.5 -65.5q184 0 271 58t87 181q0 121 -75 177.5t-253 103.5q-221 59 -336.5 155.5t-115.5 264.5q0 184 116.5 281t331.5 97q260 0 447 -239l-115 -96q-144 196 -330 196h-2q-158 0 -225.5 -57t-67.5 -182q0 -47 15.5 -85t33 -60.5 t58.5 -43t64.5 -30t81 -27t77.5 -23.5q209 -72 272 -108q178 -104 179 -324q0 -182 -137.5 -281.5t-376.5 -99.5q-135 0 -262 78t-214 211z" />
<glyph unicode="T" horiz-adv-x="1028" d="M39 1270v127h950v-127h-399v-1270h-152v1270h-399z" />
<glyph unicode="U" horiz-adv-x="1300" d="M150 580v817h163v-817q0 -209 82 -340t256 -131t256 131t82 340v817h162v-817q0 -293 -132 -453t-368 -160q-238 0 -369.5 160t-131.5 453z" />
<glyph unicode="V" horiz-adv-x="1173" d="M-2 1397h164l424 -1170l426 1170h164l-508 -1395l2 -2h-166v2z" />
<glyph unicode="W" horiz-adv-x="1742" d="M45 1397h158l295 -1102l295 1102h157l295 -1100l295 1100h158l-373 -1397h-160l-295 1102l-295 -1102h-157z" />
<glyph unicode="X" horiz-adv-x="1015" d="M43 0l379 715l-363 682h172l277 -523l278 523h172l-364 -682l381 -715h-172l-295 553l-293 -553h-172z" />
<glyph unicode="Y" horiz-adv-x="968" d="M0 1397h178l307 -512l308 512h178l-412 -686v-711h-151v717z" />
<glyph unicode="Z" horiz-adv-x="1030" d="M78 0v129l710 1141h-710v127h872v-154l-698 -1116h698v-127h-872z" />
<glyph unicode="[" horiz-adv-x="530" d="M137 -80v1557h352v-80h-198v-1397h198v-80h-352z" />
<glyph unicode="\" horiz-adv-x="772" d="M68 1397h127l507 -1397h-127z" />
<glyph unicode="]" horiz-adv-x="530" d="M41 0h201v1397h-201v80h352v-1557h-352v80z" />
<glyph unicode="^" horiz-adv-x="978" d="M92 473l377 502l375 -502l-117 -84l-260 350l-262 -350z" />
<glyph unicode="_" horiz-adv-x="937" d="M0 -55h938v-121h-938v121z" />
<glyph unicode="`" horiz-adv-x="794" d="M121 1401l69 119l443 -289l-41 -70z" />
<glyph unicode="a" d="M70 479q0 207 146 359.5t329 152.5q188 0 336 -160v127h139v-958h-139v125q-145 -158 -332 -158q-182 0 -330.5 152.5t-148.5 359.5zM209 479.5q0 -157.5 101.5 -271.5t234.5 -114t234.5 114t101.5 271.5t-101.5 271t-234.5 113.5t-234.5 -113.5t-101.5 -271z" />
<glyph unicode="b" d="M129 0v1487h139v-656q145 160 336 160q182 0 328.5 -152.5t146.5 -359.5t-145.5 -359.5t-325.5 -152.5q-190 0 -340 162v-129h-139zM268 479.5q0 -157.5 101.5 -271.5t234.5 -114t234.5 114t101.5 271.5t-101.5 271t-234.5 113.5t-234.5 -113.5t-101.5 -271z" />
<glyph unicode="c" horiz-adv-x="976" d="M70 479q0 207 146 359.5t329 152.5q100 0 196.5 -52t165.5 -140l-102 -80q-102 145 -260 145q-133 0 -234.5 -113.5t-101.5 -271t101.5 -271.5t234.5 -114q106 0 164.5 32t111.5 101l109 -75q-74 -92 -161 -138.5t-220 -46.5q-182 0 -330.5 152.5t-148.5 359.5z" />
<glyph unicode="d" d="M70 479q0 207 146 359.5t329 152.5q188 0 336 -160v656h139v-1487h-139v125q-145 -158 -332 -158q-182 0 -330.5 152.5t-148.5 359.5zM209 479.5q0 -157.5 101.5 -271.5t234.5 -114t234.5 114t101.5 271.5t-101.5 271t-234.5 113.5t-234.5 -113.5t-101.5 -271z" />
<glyph unicode="e" horiz-adv-x="1077" d="M70 479q0 207 146 359.5t328.5 152.5t329 -152.5t146.5 -359.5h-811q0 -158 101.5 -271.5t234.5 -113.5q147 0 213.5 41t120.5 133l110 -73q-76 -115 -172 -171.5t-268 -56.5q-182 0 -330.5 152.5t-148.5 359.5zM229 606h631q-35 113 -123 185.5t-192.5 72.5 t-192.5 -72.5t-123 -185.5z" />
<glyph unicode="f" horiz-adv-x="565" d="M57 831v127h123v259q0 127 88 215t215 88h58v-127h-58q-70 0 -117 -52.5t-47 -123.5v-259h222v-127h-222v-831h-139v831h-123z" />
<glyph unicode="g" d="M70 479q0 207 146 359.5t329 152.5q188 0 336 -160v127h139v-921q0 -223 -116 -335t-306 -112h-315v127h315q135 0 209 81t74 239v88q-145 -158 -332 -158q-182 0 -330.5 152.5t-148.5 359.5zM209 479.5q0 -157.5 101.5 -271.5t234.5 -114t234.5 114t101.5 271.5 t-101.5 271t-234.5 113.5t-234.5 -113.5t-101.5 -271z" />
<glyph unicode="h" horiz-adv-x="1095" d="M129 0v1487h139v-617q117 121 285 121q182 0 303 -103.5t121 -281.5v-606h-139v606q0 109 -78 183.5t-207 74.5t-207 -110.5t-78 -274.5v-479h-139z" />
<glyph unicode="i" horiz-adv-x="397" d="M88 1255.5q0 47.5 32 79t79 31.5t78.5 -31.5t31.5 -79t-31.5 -79t-78.5 -31.5t-79 31.5t-32 79zM129 0v958h139v-958h-139z" />
<glyph unicode="j" horiz-adv-x="397" d="M-92 -283h57q70 0 117 52.5t47 124.5v1064h139v-1064q0 -127 -89 -215.5t-214 -88.5h-57v127zM88 1255.5q0 47.5 32 79t79 31.5t78.5 -31.5t31.5 -79t-31.5 -79t-78.5 -31.5t-79 31.5t-32 79z" />
<glyph unicode="k" horiz-adv-x="892" d="M129 0v1487h139v-909l379 380h201l-369 -368l398 -590h-170l-328 489l-111 -108v-381h-139z" />
<glyph unicode="l" horiz-adv-x="417" d="M139 0v1487h140v-1487h-140z" />
<glyph unicode="m" horiz-adv-x="1576" d="M129 0v958h139v-71q98 104 226 104q96 0 181 -46t134 -130q106 176 278 176q150 0 259.5 -104.5t109.5 -280.5v-606h-137v606q0 106 -64.5 182t-167 76t-164 -110.5t-61.5 -274.5v-479h-137v606q0 106 -64.5 182t-167 76t-164 -110.5t-61.5 -274.5v-479h-139z" />
<glyph unicode="n" horiz-adv-x="1095" d="M129 0v958h139v-86q115 119 285 119q182 0 303 -103.5t121 -281.5v-606h-139v606q0 109 -78 183.5t-207 74.5t-207 -110.5t-78 -274.5v-479h-139z" />
<glyph unicode="o" horiz-adv-x="1089" d="M70 479q0 207 146 359.5t328.5 152.5t329 -152.5t146.5 -359.5t-145.5 -359.5t-325.5 -152.5q-182 0 -330.5 152.5t-148.5 359.5zM209 479.5q0 -157.5 101.5 -271.5t234.5 -114t234.5 114t101.5 271.5t-101.5 271t-234.5 113.5t-234.5 -113.5t-101.5 -271z" />
<glyph unicode="p" d="M129 -408v1366h139v-127q145 160 336 160q182 0 328.5 -152.5t146.5 -359.5t-145.5 -359.5t-325.5 -152.5q-190 0 -340 162v-537h-139zM268 479.5q0 -157.5 101.5 -271.5t234.5 -114t234.5 114t101.5 271.5t-101.5 271t-234.5 113.5t-234.5 -113.5t-101.5 -271z" />
<glyph unicode="q" d="M70 479q0 207 146 359.5t329 152.5q188 0 336 -160v127h139v-1368h-139v535q-145 -158 -332 -158q-182 0 -330.5 152.5t-148.5 359.5zM209 479.5q0 -157.5 101.5 -271.5t234.5 -114t234.5 114t101.5 271.5t-101.5 271t-234.5 113.5t-234.5 -113.5t-101.5 -271z" />
<glyph unicode="r" horiz-adv-x="890" d="M129 0v958h139v-75q108 108 261 108h3q268 0 363 -225l-127 -61q-66 159 -234 159h-2q-127 0 -195.5 -108.5t-68.5 -276.5v-479h-139z" />
<glyph unicode="s" horiz-adv-x="950" d="M61 195l125 61q31 -72 100.5 -116t166.5 -44q131 0 213 50.5t82 123.5q0 23 -8.5 41.5t-26 31.5t-32.5 22.5t-45 16.5t-46.5 11t-51 10.5t-46.5 8.5q-6 2 -44 9t-52.5 10t-52.5 12.5t-55.5 16.5t-49 20.5t-48 26.5t-39 32.5t-34 41t-19.5 49t-8 60.5q0 139 112.5 220 t293.5 81q266 0 360 -225l-125 -61q-66 159 -233 159h-2q-129 0 -197 -47t-68 -127q0 -23 8.5 -40t27 -30.5t33.5 -21.5t48 -16.5t49.5 -11.5t55.5 -9t51 -8q78 -14 132 -29.5t118.5 -46.5t98.5 -83t34 -124q0 -139 -125 -221t-309 -82q-135 0 -241 59.5t-151 168.5z" />
<glyph unicode="t" horiz-adv-x="565" d="M57 831v127h123v318h139v-318h222v-127h-222v-831h-139v831h-123z" />
<glyph unicode="u" horiz-adv-x="1095" d="M119 352v606h137v-606q0 -109 79 -183.5t208 -74.5t205.5 109.5t76.5 273.5v481h142v-958h-142v84q-119 -119 -282 -119q-182 0 -303 104.5t-121 282.5z" />
<glyph unicode="v" horiz-adv-x="933" d="M2 958h152l313 -778l313 778h152l-389 -958h-154z" />
<glyph unicode="w" horiz-adv-x="1472" d="M33 958h147l242 -749l242 749h143l242 -747l243 747h148l-312 -958h-155l-238 725l-235 -725h-156z" />
<glyph unicode="x" horiz-adv-x="849" d="M31 0l311 500l-287 458h164l205 -327l205 327h166l-287 -458l311 -500h-166l-229 367l-229 -367h-164z" />
<glyph unicode="y" horiz-adv-x="933" d="M2 958h152l313 -778l313 778h152l-555 -1368h-150l164 408z" />
<glyph unicode="z" horiz-adv-x="860" d="M76 0v127l540 704h-540v127h708v-127l-540 -704h540v-127h-708z" />
<glyph unicode="{" horiz-adv-x="507" d="M55 584v94q45 8 96.5 60.5t51.5 107.5q0 35 -24.5 142.5t-24.5 176.5q0 121 85 183.5t195 78.5l2 -94q-47 -10 -90 -53t-43 -113q0 -35 17.5 -142t17.5 -177q0 -143 -121 -217q119 -72 119 -217q0 -70 -17.5 -177.5t-17.5 -142.5q0 -70 43 -112.5t92 -53.5v-94 q-111 16 -196.5 78.5t-85.5 183.5q0 70 17 177.5t17 142.5q0 55 -45 107t-88 61z" />
<glyph unicode="|" horiz-adv-x="354" d="M135 -139v1675h84v-1675h-84z" />
<glyph unicode="}" horiz-adv-x="507" d="M72 -72q47 10 90 53.5t43 112.5q0 35 -17.5 142.5t-17.5 177.5q0 143 121 217q-119 72 -119 217q0 70 17.5 177.5t17.5 141.5q0 70 -43 113t-92 53v94q111 -16 196.5 -78.5t85.5 -183.5q0 -70 -17.5 -177t-17.5 -142q0 -55 45.5 -107.5t88.5 -60.5v-94 q-45 -8 -96.5 -60.5t-51.5 -107.5q0 -35 24.5 -142.5t24.5 -177.5q0 -121 -85 -183.5t-195 -78.5z" />
<glyph unicode="~" horiz-adv-x="1034" d="M106 522q10 92 92.5 179t170.5 87q68 0 175 -65.5t140 -65.5q57 0 108.5 44t59.5 87h94q-10 -92 -92 -179t-170 -87q-68 0 -175.5 64.5t-139.5 64.5q-57 0 -109.5 -43t-60.5 -86h-93z" />
<glyph unicode="&#xa1;" horiz-adv-x="473" d="M123 1083q0 47 32.5 80t80.5 33q45 0 76.5 -33t31.5 -80t-30.5 -77.5t-78 -30.5t-80 31.5t-32.5 76.5zM168 -215v1055h139v-1055h-139z" />
<glyph unicode="&#xa2;" horiz-adv-x="1001" d="M68 682q0 188 123.5 334.5t289.5 173.5v207h84v-203q94 -6 184.5 -58.5t155.5 -136.5l-102 -79q-96 135 -238 147v-770q96 2 149.5 35t104.5 98l109 -76q-72 -90 -155 -136t-208 -48v-170h-84v176q-166 29 -289.5 174.5t-123.5 331.5zM207 682q0 -139 79.5 -245.5 t194.5 -133.5v758q-115 -27 -194.5 -133.5t-79.5 -245.5z" />
<glyph unicode="&#xa3;" horiz-adv-x="962" d="M109 0v127q6 8 18 24.5t43 72t53.5 113.5t42 147t19.5 180h-162v112h137q-12 35 -47 112t-54.5 135t-19.5 105q0 160 99.5 229.5t257.5 69.5q143 0 249.5 -88t106.5 -211h-152q0 76 -62.5 125.5t-142 49.5t-142 -48.5t-62.5 -126.5q0 -51 57.5 -169.5t73.5 -182.5h178 v-112h-164q0 -131 -44 -265.5t-87 -201.5l-43 -70h629v-127h-782z" />
<glyph unicode="&#xa4;" horiz-adv-x="1046" d="M104 264l121 123q-70 94 -69.5 217t69.5 217l-121 123l78 78l123 -121q96 74 221 74q123 0 217 -70l119 117l78 -78l-117 -119q72 -98 72 -221t-72 -221l117 -119l-78 -78l-119 117q-94 -70 -217 -70q-127 0 -223 74l-121 -121zM281 604.5q0 -100.5 72.5 -173.5t173 -73 t173 73t72.5 173.5t-72.5 173t-173 72.5t-173 -72.5t-72.5 -173z" />
<glyph unicode="&#xa5;" horiz-adv-x="1073" d="M51 1397h178l308 -512l307 512h178l-412 -686v-60h181v-98h-181v-100h181v-101h-181v-352h-151v352h-180v101h180v100h-180v98h180v66z" />
<glyph unicode="&#xa6;" horiz-adv-x="366" d="M141 -139v739h84v-739h-84zM141 797v739h84v-739h-84z" />
<glyph unicode="&#xa7;" horiz-adv-x="1007" d="M72 690q0 90 30.5 142.5t112.5 107.5q-59 66 -59 174q0 141 101 227t267 86q199 0 307 -167l-114 -82q-33 55 -97.5 87.5t-123.5 32.5q-88 0 -144.5 -54t-56.5 -124q0 -39 15.5 -67.5t47 -46t61.5 -27.5t76 -23.5t72 -23.5q18 -8 73.5 -29.5t78 -33t66.5 -34t63.5 -44 t44.5 -53t35 -71.5t10 -89q0 -90 -30.5 -142.5t-112.5 -107.5q59 -66 59 -174q0 -139 -101.5 -226.5t-269.5 -87.5q-197 0 -305 168l113 82q33 -53 98.5 -87t124.5 -34q88 0 143.5 54.5t55.5 123.5q0 39 -15.5 68t-47.5 46.5t-61.5 27.5t-75.5 23.5t-73 23.5 q-18 8 -73.5 29.5t-77 33t-65.5 34t-63.5 44t-45 53t-34.5 71.5t-9 89zM211 690q0 -39 15.5 -70.5t35 -50t59 -39t62.5 -28.5t72 -25q8 -2 94 -25.5t131 -43.5q72 45 94.5 79.5t22.5 90.5q0 39 -15.5 70.5t-35 50t-59.5 39t-62.5 28.5t-71.5 25q-6 2 -93 25.5t-132 43.5 q-70 -45 -93.5 -81t-23.5 -89z" />
<glyph unicode="&#xa8;" horiz-adv-x="905" d="M119 1255.5q0 47.5 32.5 79t77.5 31.5q47 0 80 -33t33 -78t-33 -77.5t-80 -32.5q-45 0 -77.5 31.5t-32.5 79zM518 1255.5q0 47.5 32 79t79 31.5t79.5 -33t32.5 -78t-32.5 -77.5t-79.5 -32.5t-79 31.5t-32 79z" />
<glyph unicode="&#xa9;" horiz-adv-x="1439" d="M92 586q0 262 184.5 445t442.5 183q262 0 445.5 -185t183.5 -443q0 -262 -185.5 -445.5t-443.5 -183.5q-260 0 -443.5 185.5t-183.5 443.5zM186 586q0 -223 157 -378t376 -155q223 0 377.5 157t154.5 376q0 223 -156.5 377.5t-375.5 154.5q-223 0 -378 -156.5 t-155 -375.5zM401 580q0 145 100.5 247.5t225.5 102.5q152 0 256 -139l-86 -66l-6 6q-68 94 -164 94q-86 0 -149.5 -73.5t-63.5 -171.5q0 -102 64.5 -175t148.5 -73q74 0 109.5 22.5t72.5 71.5l88 -61q-100 -135 -268 -136q-127 0 -227.5 104.5t-100.5 246.5z" />
<glyph unicode="&#xaa;" horiz-adv-x="845" d="M123 584v104h590v-104h-590zM123 1110q0 121 88 218t203 97q109 0 194 -79v61h105v-596h-105v61q-86 -80 -194 -79q-115 0 -203 98t-88 219zM225 1108q0 -86 57.5 -152.5t135.5 -66.5t134 68.5t56 154.5t-57 151.5t-137 65.5q-78 0 -133.5 -67.5t-55.5 -153.5z" />
<glyph unicode="&#xab;" horiz-adv-x="1161" d="M45 487l498 377l84 -114l-353 -263l353 -264l-84 -110zM485 487l498 377l84 -114l-352 -263l352 -264l-84 -110z" />
<glyph unicode="&#xac;" horiz-adv-x="788" d="M133 436v113h522v-307h-112v194h-410z" />
<glyph unicode="&#xad;" horiz-adv-x="681" d="M115 436v113h452v-113h-452z" />
<glyph unicode="&#xae;" horiz-adv-x="1439" d="M92 586q0 262 184.5 445t442.5 183q262 0 445.5 -185t183.5 -443q0 -262 -185.5 -445.5t-443.5 -183.5q-260 0 -443.5 185.5t-183.5 443.5zM186 586q0 -223 157 -378t376 -155q223 0 377.5 157t154.5 376q0 223 -156.5 377.5t-375.5 154.5q-223 0 -378 -156.5 t-155 -375.5zM483 240v680h265q86 0 150.5 -56.5t64.5 -146.5q0 -121 -107 -178l178 -299h-131l-164 272h-143v-272h-113zM596 616h113q78 0 110.5 30t32.5 71q0 43 -35 71.5t-108 28.5h-113v-201z" />
<glyph unicode="&#xaf;" horiz-adv-x="831" d="M121 1200v92h547v-92h-547z" />
<glyph unicode="&#xb0;" horiz-adv-x="698" d="M74 1151q0 115 81 195.5t193 80.5q115 0 196 -80.5t81 -195.5q0 -113 -81 -192.5t-196 -79.5t-194.5 79.5t-79.5 192.5zM184 1151q0 -70 47.5 -117t117 -47t116.5 47t47 117t-47 119t-116.5 49t-117 -49t-47.5 -119z" />
<glyph unicode="&#xb1;" horiz-adv-x="1005" d="M127 45v113h752v-113h-752zM127 569v113h319v276h113v-276h320v-113h-320v-274h-113v274h-319z" />
<glyph unicode="&#xb2;" horiz-adv-x="729" d="M82 1251q63 84 122.5 122t145.5 38q125 0 196.5 -63.5t71.5 -178.5q0 -90 -47 -155.5t-163 -153.5q-141 -104 -181 -221h402v-111h-533v66q0 158 252 360q86 68 119 112t33 103q0 131 -150 131q-41 0 -74.5 -18t-51 -38.5t-52.5 -67.5z" />
<glyph unicode="&#xb3;" horiz-adv-x="696" d="M49 651l88 72q74 -92 168 -92q197 0 197 145q0 166 -262 166v111q92 0 162.5 35.5t70.5 91.5q0 53 -37 88t-102 35q-82 0 -148 -89l-88 70q39 59 106.5 93t129.5 34q106 0 182 -64.5t76 -166.5q0 -100 -123 -176q152 -78 152 -228q0 -127 -97.5 -191.5t-218.5 -64.5 q-72 0 -141.5 37t-114.5 94z" />
<glyph unicode="&#xb4;" horiz-adv-x="794" d="M119 1231l442 289l70 -119l-471 -240z" />
<glyph unicode="&#xb5;" horiz-adv-x="1185" d="M129 -410v1368h137v-198q0 -324 80 -495t217 -171q154 0 253 145.5t99 487.5v231h142v-958h-142v154q-133 -188 -352 -189q-184 0 -297 172v-547h-137z" />
<glyph unicode="&#xb6;" horiz-adv-x="1075" d="M66 985q0 135 75.5 231.5t183 138.5t232.5 42h346v-1397h-153v1268h-95v-1268h-153v578q-180 14 -308 118.5t-128 288.5zM233 985q0 -121 74 -191.5t195 -84.5v555q-119 -14 -194 -86t-75 -193z" />
<glyph unicode="&#xb7;" horiz-adv-x="450" d="M115 520q0 45 32.5 78t77.5 33t78 -33t33 -78q0 -47 -33 -79.5t-78 -32.5t-77.5 32.5t-32.5 79.5z" />
<glyph unicode="&#xb8;" horiz-adv-x="706" d="M119 -354q102 0 194.5 23.5t92.5 62.5q0 20 -14.5 31.5t-63.5 18.5t-144 7l99 211h104l-68 -139q111 0 165.5 -37t54.5 -80q0 -154 -420 -154v56z" />
<glyph unicode="&#xb9;" horiz-adv-x="454" d="M25 1065l196 332h111v-865h-117v613l-117 -109z" />
<glyph unicode="&#xba;" horiz-adv-x="835" d="M123 584v104h590v-104h-590zM123 1110q0 123 89 219t206 96t206 -96t89 -219t-89 -220t-206 -97t-206 97t-89 220zM225 1108q0 -86 57.5 -152.5t135.5 -66.5t134 68.5t56 154.5t-57 151.5t-137 65.5q-78 0 -133.5 -67.5t-55.5 -153.5z" />
<glyph unicode="&#xbb;" horiz-adv-x="1163" d="M96 225l350 262l-350 265l84 112l498 -377l-498 -374zM537 225l350 262l-350 265l84 112l497 -377l-497 -374z" />
<glyph unicode="&#xbc;" horiz-adv-x="1415" d="M59 1065l197 332h111v-865h-117v613l-117 -109zM332 0l508 1397h127l-508 -1397h-127zM760 215v109l377 540h114v-530h82v-119h-82v-215h-121v215h-370zM899 334h231v330z" />
<glyph unicode="&#xbd;" horiz-adv-x="1501" d="M59 1065l197 332h111v-865h-117v613l-117 -109zM332 0l508 1397h127l-508 -1397h-127zM864 725q63 84 123 122t146 38q123 0 195.5 -64.5t72.5 -179.5q0 -90 -47 -155.5t-164 -153.5q-143 -106 -180 -219h401v-113h-532v66q0 158 251 360q86 68 119 112t33 103 q0 131 -149 131q-41 0 -75 -18.5t-51.5 -39t-52.5 -67.5z" />
<glyph unicode="&#xbe;" horiz-adv-x="1583" d="M63 651l89 72q74 -92 167 -92q197 0 197 145q0 166 -262 166v111q92 0 162.5 35.5t70.5 91.5q0 53 -36.5 88t-102.5 35q-82 0 -147 -89l-88 70q39 59 106.5 93t128.5 34q106 0 182 -64.5t76 -166.5q0 -100 -123 -176q152 -78 152 -228q0 -127 -97.5 -191.5t-218.5 -64.5 q-72 0 -141 37t-115 94zM508 0l508 1397h127l-508 -1397h-127zM936 215v109l377 540h114v-530h82v-119h-82v-215h-120v215h-371zM1075 334h232v330z" />
<glyph unicode="&#xbf;" horiz-adv-x="944" d="M80 180q0 111 38 190t91 127t106.5 93t91 115.5t37.5 166.5h142q0 -111 -38 -189.5t-91.5 -126.5t-106.5 -93t-91 -116t-38 -167q0 -115 75 -191.5t202 -76.5q92 0 160.5 51t99.5 146l127 -41q-45 -129 -153.5 -206t-233.5 -77q-176 0 -297 113.5t-121 281.5zM406 1116 q0 47 32.5 80t77.5 33t78 -33t33 -80t-33 -78.5t-78 -31.5t-77.5 31.5t-32.5 78.5z" />
<glyph unicode="&#xc0;" horiz-adv-x="1179" d="M2 0l506 1393v4h166l-2 -4l508 -1393h-164l-144 391h-565l-141 -391h-164zM238 1725l69 119l443 -289l-41 -70zM354 518h473l-237 649z" />
<glyph unicode="&#xc1;" horiz-adv-x="1179" d="M2 0l506 1393v4h166l-2 -4l508 -1393h-164l-144 391h-565l-141 -391h-164zM354 518h473l-237 649zM428 1555l442 289l70 -119l-471 -240z" />
<glyph unicode="&#xc2;" horiz-adv-x="1179" d="M2 0l506 1393v4h166l-2 -4l508 -1393h-164l-144 391h-565l-141 -391h-164zM311 1555l276 254l279 -254l-39 -70l-240 158l-237 -158zM354 518h473l-237 649z" />
<glyph unicode="&#xc3;" horiz-adv-x="1179" d="M2 0l506 1393v4h166l-2 -4l508 -1393h-164l-144 391h-565l-141 -391h-164zM240 1485q12 96 78.5 181t152.5 85q53 0 96.5 -31.5t78 -64.5t65.5 -33q55 0 92 41t45 88h94q-12 -96 -78.5 -181t-152.5 -85q-53 0 -96 33t-78 65.5t-66 32.5q-55 0 -93 -42t-46 -89h-92z M354 518h473l-237 649z" />
<glyph unicode="&#xc4;" horiz-adv-x="1179" d="M2 0l506 1393v4h166l-2 -4l508 -1393h-164l-144 391h-565l-141 -391h-164zM279 1579.5q0 47.5 32.5 79t77.5 31.5q47 0 80 -33t33 -78t-33 -77.5t-80 -32.5q-45 0 -77.5 31.5t-32.5 79zM354 518h473l-237 649zM678 1579.5q0 47.5 32 79t79 31.5t79.5 -33t32.5 -78 t-32.5 -77.5t-79.5 -32.5t-79 31.5t-32 79z" />
<glyph unicode="&#xc5;" horiz-adv-x="1179" d="M2 0l506 1393v4h166l-2 -4l508 -1393h-164l-144 391h-565l-141 -391h-164zM354 518h473l-237 649zM385 1674q0 84 59.5 144t143.5 60t144 -60t60 -144t-60 -143.5t-144 -59.5t-143.5 59.5t-59.5 143.5zM487 1674q0 -41 30 -72t70.5 -31t71.5 31t31 72t-31 71.5 t-71.5 30.5t-70.5 -30.5t-30 -71.5z" />
<glyph unicode="&#xc6;" horiz-adv-x="1581" d="M-41 0l754 1393v4h782v-129h-631v-447h492v-125h-492v-569h637v-127h-788v391h-379l-211 -391h-164zM403 518h310v572z" />
<glyph unicode="&#xc7;" horiz-adv-x="1177" d="M92 696q0 297 165 514t398 217q254 0 441 -286l-121 -86q-141 233 -319.5 233t-293 -176t-114.5 -415.5t114.5 -413.5t292.5 -174q193 0 332 258l133 -72q-170 -293 -411 -324l-56 -110q111 0 166 -37t55 -80q0 -154 -419 -154v56q100 0 192 23.5t92 62.5q0 20 -14 31.5 t-62.5 18.5t-142.5 7l84 180q-217 27 -364.5 237t-147.5 490z" />
<glyph unicode="&#xc8;" horiz-adv-x="1030" d="M162 0v1397h782v-129h-629v-447h492v-125h-492v-569h635v-127h-788zM234 1725l69 119l443 -289l-41 -70z" />
<glyph unicode="&#xc9;" horiz-adv-x="1030" d="M162 0v1397h782v-129h-629v-447h492v-125h-492v-569h635v-127h-788zM424 1555l442 289l70 -119l-471 -240z" />
<glyph unicode="&#xca;" horiz-adv-x="1030" d="M162 0v1397h782v-129h-629v-447h492v-125h-492v-569h635v-127h-788zM307 1555l276 254l279 -254l-39 -70l-240 158l-237 -158z" />
<glyph unicode="&#xcb;" horiz-adv-x="1030" d="M162 0v1397h782v-129h-629v-447h492v-125h-492v-569h635v-127h-788zM275 1579.5q0 47.5 32.5 79t77.5 31.5q47 0 80 -33t33 -78t-33 -77.5t-80 -32.5q-45 0 -77.5 31.5t-32.5 79zM674 1579.5q0 47.5 32 79t79 31.5t79.5 -33t32.5 -78t-32.5 -77.5t-79.5 -32.5t-79 31.5 t-32 79z" />
<glyph unicode="&#xcc;" horiz-adv-x="518" d="M-90 1725l69 119l443 -289l-41 -70zM109 0v135h73v1127h-73v135h301v-135h-74v-1127h74v-135h-301z" />
<glyph unicode="&#xcd;" horiz-adv-x="518" d="M101 1555l442 289l70 -119l-471 -240zM109 0v135h73v1127h-73v135h301v-135h-74v-1127h74v-135h-301z" />
<glyph unicode="&#xce;" horiz-adv-x="518" d="M-18 1555l276 254l279 -254l-39 -70l-240 158l-237 -158zM109 0v135h73v1127h-73v135h301v-135h-74v-1127h74v-135h-301z" />
<glyph unicode="&#xcf;" horiz-adv-x="518" d="M-49 1579.5q0 47.5 32.5 79t77.5 31.5q47 0 80 -33t33 -78t-33 -77.5t-80 -32.5q-45 0 -77.5 31.5t-32.5 79zM109 0v135h73v1127h-73v135h301v-135h-74v-1127h74v-135h-301zM350 1579.5q0 47.5 32 79t79 31.5t79.5 -33t32.5 -78t-32.5 -77.5t-79.5 -32.5t-79 31.5t-32 79 z" />
<glyph unicode="&#xd0;" horiz-adv-x="1253" d="M43 633v127h123v637h305q135 0 257 -42t220.5 -124t155.5 -220.5t57 -314.5t-57 -313t-155.5 -219t-219.5 -123t-258 -41h-305v633h-123zM319 139h107q274 0 423.5 137.5t149.5 420t-149.5 420.5t-423.5 138h-107v-495h261v-127h-261v-494z" />
<glyph unicode="&#xd1;" horiz-adv-x="1288" d="M162 0v1397h153l660 -1145v1145h151v-1397h-151l-660 1141v-1141h-153zM305 1485q12 96 78.5 181t152.5 85q53 0 96.5 -31.5t78 -64.5t65.5 -33q55 0 92 41t45 88h94q-12 -96 -78.5 -181t-152.5 -85q-53 0 -96 33t-78 65.5t-66 32.5q-55 0 -93 -42t-46 -89h-92z" />
<glyph unicode="&#xd2;" horiz-adv-x="1372" d="M86 696q0 293 181.5 512t419 219t418.5 -219t181 -512t-181 -511t-418.5 -218t-419 218t-181.5 511zM248 696q0 -233 128 -410t310 -177t310 177t128 410q0 236 -129 414t-309 178t-309 -178t-129 -414zM336 1725l69 119l443 -289l-41 -70z" />
<glyph unicode="&#xd3;" horiz-adv-x="1372" d="M86 696q0 293 181.5 512t419 219t418.5 -219t181 -512t-181 -511t-418.5 -218t-419 218t-181.5 511zM248 696q0 -233 128 -410t310 -177t310 177t128 410q0 236 -129 414t-309 178t-309 -178t-129 -414zM527 1555l442 289l70 -119l-471 -240z" />
<glyph unicode="&#xd4;" horiz-adv-x="1372" d="M86 696q0 293 181.5 512t419 219t418.5 -219t181 -512t-181 -511t-418.5 -218t-419 218t-181.5 511zM248 696q0 -233 128 -410t310 -177t310 177t128 410q0 236 -129 414t-309 178t-309 -178t-129 -414zM410 1555l276 254l279 -254l-39 -70l-240 158l-237 -158z" />
<glyph unicode="&#xd5;" horiz-adv-x="1372" d="M86 696q0 293 181.5 512t419 219t418.5 -219t181 -512t-181 -511t-418.5 -218t-419 218t-181.5 511zM248 696q0 -233 128 -410t310 -177t310 177t128 410q0 236 -129 414t-309 178t-309 -178t-129 -414zM338 1485q12 96 78.5 181t152.5 85q53 0 96.5 -31.5t78 -64.5 t65.5 -33q55 0 92 41t45 88h94q-12 -96 -78.5 -181t-152.5 -85q-53 0 -96 33t-78 65.5t-66 32.5q-55 0 -93 -42t-46 -89h-92z" />
<glyph unicode="&#xd6;" horiz-adv-x="1372" d="M86 696q0 293 181.5 512t419 219t418.5 -219t181 -512t-181 -511t-418.5 -218t-419 218t-181.5 511zM248 696q0 -233 128 -410t310 -177t310 177t128 410q0 236 -129 414t-309 178t-309 -178t-129 -414zM377 1579.5q0 47.5 32.5 79t77.5 31.5q47 0 80 -33t33 -78 t-33 -77.5t-80 -32.5q-45 0 -77.5 31.5t-32.5 79zM776 1579.5q0 47.5 32 79t79 31.5t79.5 -33t32.5 -78t-32.5 -77.5t-79.5 -32.5t-79 31.5t-32 79z" />
<glyph unicode="&#xd7;" horiz-adv-x="880" d="M106 238l254 254l-254 253l80 80l254 -254l254 254l80 -80l-254 -253l254 -254l-80 -80l-254 254l-254 -254z" />
<glyph unicode="&#xd8;" horiz-adv-x="1376" d="M49 0l189 227q-150 207 -150 469q0 293 181.5 512t418.5 219q215 0 385 -180l123 150h129l-188 -228q152 -213 151 -473q0 -293 -181 -511t-419 -218q-213 0 -387 185l-125 -152h-127zM250 696q0 -193 86 -346l643 783q-129 156 -291 155q-180 0 -309 -178t-129 -414z M393 264q125 -156 295 -155q182 0 310 177t128 410q0 191 -88 351z" />
<glyph unicode="&#xd9;" horiz-adv-x="1300" d="M150 580v817h163v-817q0 -209 82 -340t256 -131t256 131t82 340v817h162v-817q0 -293 -132 -453t-368 -160q-238 0 -369.5 160t-131.5 453zM299 1725l69 119l443 -289l-41 -70z" />
<glyph unicode="&#xda;" horiz-adv-x="1300" d="M150 580v817h163v-817q0 -209 82 -340t256 -131t256 131t82 340v817h162v-817q0 -293 -132 -453t-368 -160q-238 0 -369.5 160t-131.5 453zM490 1555l442 289l70 -119l-471 -240z" />
<glyph unicode="&#xdb;" horiz-adv-x="1300" d="M150 580v817h163v-817q0 -209 82 -340t256 -131t256 131t82 340v817h162v-817q0 -293 -132 -453t-368 -160q-238 0 -369.5 160t-131.5 453zM373 1555l276 254l279 -254l-39 -70l-240 158l-237 -158z" />
<glyph unicode="&#xdc;" horiz-adv-x="1300" d="M150 580v817h163v-817q0 -209 82 -340t256 -131t256 131t82 340v817h162v-817q0 -293 -132 -453t-368 -160q-238 0 -369.5 160t-131.5 453zM340 1579.5q0 47.5 32.5 79t77.5 31.5q47 0 80 -33t33 -78t-33 -77.5t-80 -32.5q-45 0 -77.5 31.5t-32.5 79zM739 1579.5 q0 47.5 32 79t79 31.5t79.5 -33t32.5 -78t-32.5 -77.5t-79.5 -32.5t-79 31.5t-32 79z" />
<glyph unicode="&#xdd;" horiz-adv-x="968" d="M0 1397h178l307 -512l308 512h178l-412 -686v-711h-151v717zM324 1555l442 289l70 -119l-471 -240z" />
<glyph unicode="&#xde;" horiz-adv-x="1050" d="M162 0v1397h153v-346h271q180 0 304 -98.5t124 -252t-122 -252t-302 -98.5h-275v-350h-153zM315 475h271q123 0 191.5 67.5t68.5 158t-67.5 156t-192.5 65.5h-271v-447z" />
<glyph unicode="&#xdf;" horiz-adv-x="1060" d="M129 0v1092q0 426 358 426q211 0 299 -86t88 -252q0 -61 -32.5 -109.5t-78.5 -78t-93 -55.5t-80 -53.5t-33 -58.5q0 -39 44 -59.5t130 -38.5q123 -27 203 -140.5t80 -264.5q0 -154 -83 -254.5t-251 -100.5q-129 0 -204 56.5t-124 171.5l125 61q35 -84 74 -122t129 -38 q100 0 147 68.5t47 157.5q0 90 -40.5 166.5t-114.5 99.5q-74 20 -104.5 29.5t-80 31t-67.5 42t-34.5 55t-16.5 79.5q0 80 49 131.5t109.5 74t109.5 68.5t49 118q0 174 -246 174q-100 0 -159.5 -64.5t-59.5 -198.5v-1128h-139z" />
<glyph unicode="&#xe0;" d="M70 479q0 207 146 359.5t329 152.5q188 0 336 -160v127h139v-958h-139v125q-145 -158 -332 -158q-182 0 -330.5 152.5t-148.5 359.5zM209 479.5q0 -157.5 101.5 -271.5t234.5 -114t234.5 114t101.5 271.5t-101.5 271t-234.5 113.5t-234.5 -113.5t-101.5 -271zM213 1401 l69 119l443 -289l-41 -70z" />
<glyph unicode="&#xe1;" d="M70 479q0 207 146 359.5t329 152.5q188 0 336 -160v127h139v-958h-139v125q-145 -158 -332 -158q-182 0 -330.5 152.5t-148.5 359.5zM209 479.5q0 -157.5 101.5 -271.5t234.5 -114t234.5 114t101.5 271.5t-101.5 271t-234.5 113.5t-234.5 -113.5t-101.5 -271zM404 1231 l442 289l70 -119l-471 -240z" />
<glyph unicode="&#xe2;" d="M70 479q0 207 146 359.5t329 152.5q188 0 336 -160v127h139v-958h-139v125q-145 -158 -332 -158q-182 0 -330.5 152.5t-148.5 359.5zM209 479.5q0 -157.5 101.5 -271.5t234.5 -114t234.5 114t101.5 271.5t-101.5 271t-234.5 113.5t-234.5 -113.5t-101.5 -271zM287 1231 l276 254l279 -254l-39 -70l-240 158l-238 -158z" />
<glyph unicode="&#xe3;" d="M70 479q0 207 146 359.5t329 152.5q188 0 336 -160v127h139v-958h-139v125q-145 -158 -332 -158q-182 0 -330.5 152.5t-148.5 359.5zM209 479.5q0 -157.5 101.5 -271.5t234.5 -114t234.5 114t101.5 271.5t-101.5 271t-234.5 113.5t-234.5 -113.5t-101.5 -271zM215 1161 q12 96 78.5 181t152.5 85q53 0 96.5 -31.5t78 -64.5t65.5 -33q55 0 92 41t45 88h94q-12 -96 -78.5 -181t-152.5 -85q-53 0 -96 33t-78 65.5t-66 32.5q-55 0 -93 -42t-46 -89h-92z" />
<glyph unicode="&#xe4;" d="M70 479q0 207 146 359.5t329 152.5q188 0 336 -160v127h139v-958h-139v125q-145 -158 -332 -158q-182 0 -330.5 152.5t-148.5 359.5zM209 479.5q0 -157.5 101.5 -271.5t234.5 -114t234.5 114t101.5 271.5t-101.5 271t-234.5 113.5t-234.5 -113.5t-101.5 -271zM254 1255.5 q0 47.5 32.5 79t77.5 31.5q47 0 80 -33t33 -78t-33 -77.5t-80 -32.5q-45 0 -77.5 31.5t-32.5 79zM653 1255.5q0 47.5 32 79t79 31.5t79.5 -33t32.5 -78t-32.5 -77.5t-79.5 -32.5t-79 31.5t-32 79z" />
<glyph unicode="&#xe5;" d="M70 479q0 207 146 359.5t329 152.5q188 0 336 -160v127h139v-958h-139v125q-145 -158 -332 -158q-182 0 -330.5 152.5t-148.5 359.5zM209 479.5q0 -157.5 101.5 -271.5t234.5 -114t234.5 114t101.5 271.5t-101.5 271t-234.5 113.5t-234.5 -113.5t-101.5 -271zM360 1350 q0 84 59.5 144t143.5 60t144.5 -60t60.5 -144t-60.5 -143.5t-144.5 -59.5t-143.5 59.5t-59.5 143.5zM463 1350q0 -41 29.5 -72t70.5 -31t71.5 31t30.5 72t-30.5 71.5t-71.5 30.5t-70.5 -30.5t-29.5 -71.5z" />
<glyph unicode="&#xe6;" horiz-adv-x="1775" d="M55 262q0 143 132 237.5t415 94.5q82 0 162 -25q-12 113 -85 203t-194 90q-102 0 -152.5 -30.5t-105.5 -102.5l-108 68q51 66 88 100.5t109.5 63t168.5 28.5q256 0 361 -239q68 109 175 174t222 65q182 0 328.5 -151.5t146.5 -358.5h-811q0 -158 101.5 -271.5 t234.5 -113.5q147 0 214 41t120 131l111 -71q-76 -115 -172.5 -171.5t-268.5 -56.5q-184 0 -327 148q-178 -147 -494 -148q-162 0 -266.5 80t-104.5 215zM209 260q0 -63 41 -103t87 -51.5t95 -11.5q242 0 404 131q-63 111 -70 224q-102 25 -162 24q-193 0 -294 -55.5 t-101 -157.5zM928 606h631q-35 113 -123 184.5t-192.5 71.5t-192.5 -71.5t-123 -184.5z" />
<glyph unicode="&#xe7;" horiz-adv-x="980" d="M72 479q0 207 146.5 359.5t328.5 152.5q100 0 196.5 -52t165.5 -140l-102 -80q-102 145 -260 145q-133 0 -234.5 -113.5t-101.5 -271t101.5 -271.5t234.5 -114q106 0 164.5 32t111.5 101l109 -75q-133 -168 -324 -183l-53 -108q111 0 165 -37t54 -80q0 -154 -420 -154v56 q102 0 194.5 23.5t92.5 62.5q0 20 -14.5 31.5t-63.5 18.5t-143 7l84 180q-170 20 -301 169t-131 341z" />
<glyph unicode="&#xe8;" horiz-adv-x="1077" d="M70 479q0 207 146 359.5t328.5 152.5t329 -152.5t146.5 -359.5h-811q0 -158 101.5 -271.5t234.5 -113.5q147 0 213.5 41t120.5 133l110 -73q-76 -115 -172 -171.5t-268 -56.5q-182 0 -330.5 152.5t-148.5 359.5zM193 1401l69 119l443 -289l-41 -70zM229 606h631 q-35 113 -123 185.5t-192.5 72.5t-192.5 -72.5t-123 -185.5z" />
<glyph unicode="&#xe9;" horiz-adv-x="1077" d="M70 479q0 207 146 359.5t328.5 152.5t329 -152.5t146.5 -359.5h-811q0 -158 101.5 -271.5t234.5 -113.5q147 0 213.5 41t120.5 133l110 -73q-76 -115 -172 -171.5t-268 -56.5q-182 0 -330.5 152.5t-148.5 359.5zM229 606h631q-35 113 -123 185.5t-192.5 72.5 t-192.5 -72.5t-123 -185.5zM383 1231l443 289l69 -119l-471 -240z" />
<glyph unicode="&#xea;" horiz-adv-x="1077" d="M70 479q0 207 146 359.5t328.5 152.5t329 -152.5t146.5 -359.5h-811q0 -158 101.5 -271.5t234.5 -113.5q147 0 213.5 41t120.5 133l110 -73q-76 -115 -172 -171.5t-268 -56.5q-182 0 -330.5 152.5t-148.5 359.5zM229 606h631q-35 113 -123 185.5t-192.5 72.5 t-192.5 -72.5t-123 -185.5zM267 1231l276 254l279 -254l-39 -70l-240 158l-238 -158z" />
<glyph unicode="&#xeb;" horiz-adv-x="1077" d="M70 479q0 207 146 359.5t328.5 152.5t329 -152.5t146.5 -359.5h-811q0 -158 101.5 -271.5t234.5 -113.5q147 0 213.5 41t120.5 133l110 -73q-76 -115 -172 -171.5t-268 -56.5q-182 0 -330.5 152.5t-148.5 359.5zM229 606h631q-35 113 -123 185.5t-192.5 72.5 t-192.5 -72.5t-123 -185.5zM234 1255.5q0 47.5 31.5 79t78.5 31.5t80 -33t33 -78t-33 -77.5t-80 -32.5t-78.5 31.5t-31.5 79zM633 1255.5q0 47.5 33 79t78 31.5q47 0 79.5 -33t32.5 -78t-32.5 -77.5t-79.5 -32.5q-45 0 -78 31.5t-33 79z" />
<glyph unicode="&#xec;" horiz-adv-x="397" d="M-153 1401l69 119l443 -289l-41 -70zM129 0v958h139v-958h-139z" />
<glyph unicode="&#xed;" horiz-adv-x="397" d="M37 1231l443 289l69 -119l-471 -240zM129 0v958h139v-958h-139z" />
<glyph unicode="&#xee;" horiz-adv-x="397" d="M-79 1231l276 254l279 -254l-39 -70l-240 158l-238 -158zM129 0v958h139v-958h-139z" />
<glyph unicode="&#xef;" horiz-adv-x="397" d="M-112 1255.5q0 47.5 31.5 79t78.5 31.5t80 -33t33 -78t-33 -77.5t-80 -32.5t-78.5 31.5t-31.5 79zM129 0v958h139v-958h-139zM287 1255.5q0 47.5 33 79t78 31.5q47 0 79.5 -33t32.5 -78t-32.5 -77.5t-79.5 -32.5q-45 0 -78 31.5t-33 79z" />
<glyph unicode="&#xf0;" horiz-adv-x="1114" d="M70 479q0 207 146 359.5t329 152.5q145 0 278 -106q-61 150 -256 321l-106 -143l-94 70l114 147q-53 43 -151 113l86 112l147 -114l99 129l92 -70l-103 -133q180 -162 274.5 -354.5t94.5 -483.5q0 -207 -145.5 -359.5t-325.5 -152.5q-182 0 -330.5 152.5t-148.5 359.5z M207 479.5q0 -157.5 102.5 -271.5t235.5 -114t234.5 114t101.5 271.5t-101.5 270t-234.5 112.5t-235.5 -112.5t-102.5 -270z" />
<glyph unicode="&#xf1;" horiz-adv-x="1095" d="M129 0v958h139v-86q115 119 285 119q182 0 303 -103.5t121 -281.5v-606h-139v606q0 109 -78 183.5t-207 74.5t-207 -110.5t-78 -274.5v-479h-139zM213 1161q12 96 78.5 181t152.5 85q53 0 96.5 -31.5t78 -64.5t65.5 -33q55 0 92 41t45 88h94q-12 -96 -78.5 -181 t-152.5 -85q-53 0 -96 33t-78 65.5t-66 32.5q-55 0 -93 -42t-46 -89h-92z" />
<glyph unicode="&#xf2;" horiz-adv-x="1089" d="M70 479q0 207 146 359.5t328.5 152.5t329 -152.5t146.5 -359.5t-145.5 -359.5t-325.5 -152.5q-182 0 -330.5 152.5t-148.5 359.5zM193 1401l69 119l443 -289l-41 -70zM209 479.5q0 -157.5 101.5 -271.5t234.5 -114t234.5 114t101.5 271.5t-101.5 271t-234.5 113.5 t-234.5 -113.5t-101.5 -271z" />
<glyph unicode="&#xf3;" horiz-adv-x="1089" d="M70 479q0 207 146 359.5t328.5 152.5t329 -152.5t146.5 -359.5t-145.5 -359.5t-325.5 -152.5q-182 0 -330.5 152.5t-148.5 359.5zM209 479.5q0 -157.5 101.5 -271.5t234.5 -114t234.5 114t101.5 271.5t-101.5 271t-234.5 113.5t-234.5 -113.5t-101.5 -271zM383 1231 l443 289l69 -119l-471 -240z" />
<glyph unicode="&#xf4;" horiz-adv-x="1089" d="M70 479q0 207 146 359.5t328.5 152.5t329 -152.5t146.5 -359.5t-145.5 -359.5t-325.5 -152.5q-182 0 -330.5 152.5t-148.5 359.5zM209 479.5q0 -157.5 101.5 -271.5t234.5 -114t234.5 114t101.5 271.5t-101.5 271t-234.5 113.5t-234.5 -113.5t-101.5 -271zM267 1231 l276 254l279 -254l-39 -70l-240 158l-238 -158z" />
<glyph unicode="&#xf5;" horiz-adv-x="1089" d="M70 479q0 207 146 359.5t328.5 152.5t329 -152.5t146.5 -359.5t-145.5 -359.5t-325.5 -152.5q-182 0 -330.5 152.5t-148.5 359.5zM195 1161q12 96 78.5 181t152.5 85q53 0 96.5 -31.5t78 -64.5t65.5 -33q55 0 92 41t45 88h94q-12 -96 -78.5 -181t-152.5 -85q-53 0 -96 33 t-78 65.5t-66 32.5q-55 0 -93 -42t-46 -89h-92zM209 479.5q0 -157.5 101.5 -271.5t234.5 -114t234.5 114t101.5 271.5t-101.5 271t-234.5 113.5t-234.5 -113.5t-101.5 -271z" />
<glyph unicode="&#xf6;" horiz-adv-x="1089" d="M70 479q0 207 146 359.5t328.5 152.5t329 -152.5t146.5 -359.5t-145.5 -359.5t-325.5 -152.5q-182 0 -330.5 152.5t-148.5 359.5zM209 479.5q0 -157.5 101.5 -271.5t234.5 -114t234.5 114t101.5 271.5t-101.5 271t-234.5 113.5t-234.5 -113.5t-101.5 -271zM234 1255.5 q0 47.5 31.5 79t78.5 31.5t80 -33t33 -78t-33 -77.5t-80 -32.5t-78.5 31.5t-31.5 79zM633 1255.5q0 47.5 33 79t78 31.5q47 0 79.5 -33t32.5 -78t-32.5 -77.5t-79.5 -32.5q-45 0 -78 31.5t-33 79z" />
<glyph unicode="&#xf7;" horiz-adv-x="915" d="M109 436v113h696v-113h-696zM340 156q0 45 33 77.5t78 32.5q47 0 79.5 -32.5t32.5 -77.5t-33.5 -79t-78.5 -34t-78 33t-33 80zM340 797q0 45 31.5 76.5t79 31.5t80 -31.5t32.5 -76.5q0 -47 -33.5 -80t-78.5 -33t-78 33t-33 80z" />
<glyph unicode="&#xf8;" horiz-adv-x="1091" d="M37 0l149 160q-114 145 -114 319q0 207 146.5 359.5t328.5 152.5q164 0 299 -123l84 90h129l-150 -157q113 -147 113 -322q0 -207 -145.5 -359.5t-325.5 -152.5q-164 0 -301 125l-86 -92h-127zM211 479q0 -121 65 -223l482 518q-96 90 -211 90q-133 0 -234.5 -113.5 t-101.5 -271.5zM336 184q94 -90 211 -90q133 0 234.5 114t101.5 271q0 123 -66 221z" />
<glyph unicode="&#xf9;" horiz-adv-x="1095" d="M119 352v606h137v-606q0 -109 79 -183.5t208 -74.5t205.5 109.5t76.5 273.5v481h142v-958h-142v84q-119 -119 -282 -119q-182 0 -303 104.5t-121 282.5zM189 1401l69 119l443 -289l-41 -70z" />
<glyph unicode="&#xfa;" horiz-adv-x="1095" d="M119 352v606h137v-606q0 -109 79 -183.5t208 -74.5t205.5 109.5t76.5 273.5v481h142v-958h-142v84q-119 -119 -282 -119q-182 0 -303 104.5t-121 282.5zM379 1231l443 289l69 -119l-471 -240z" />
<glyph unicode="&#xfb;" horiz-adv-x="1095" d="M119 352v606h137v-606q0 -109 79 -183.5t208 -74.5t205.5 109.5t76.5 273.5v481h142v-958h-142v84q-119 -119 -282 -119q-182 0 -303 104.5t-121 282.5zM263 1231l276 254l279 -254l-39 -70l-240 158l-238 -158z" />
<glyph unicode="&#xfc;" horiz-adv-x="1095" d="M119 352v606h137v-606q0 -109 79 -183.5t208 -74.5t205.5 109.5t76.5 273.5v481h142v-958h-142v84q-119 -119 -282 -119q-182 0 -303 104.5t-121 282.5zM230 1255.5q0 47.5 31.5 79t78.5 31.5t80 -33t33 -78t-33 -77.5t-80 -32.5t-78.5 31.5t-31.5 79zM629 1255.5 q0 47.5 33 79t78 31.5q47 0 79.5 -33t32.5 -78t-32.5 -77.5t-79.5 -32.5q-45 0 -78 31.5t-33 79z" />
<glyph unicode="&#xfd;" horiz-adv-x="933" d="M2 958h152l313 -778l313 778h152l-555 -1368h-150l164 408zM303 1231l443 289l69 -119l-471 -240z" />
<glyph unicode="&#xfe;" horiz-adv-x="1026" d="M129 -410v1686h139v-436q166 152 420 151q137 0 210 -77.5t73 -204.5q0 -131 -61.5 -255t-143.5 -207t-191.5 -159t-177 -110.5t-129.5 -61.5v-326h-139zM268 98q49 23 104.5 52.5t140.5 89t148.5 125t110.5 158.5t47 192q0 68 -43 107.5t-88 39.5q-244 0 -420 -225v-539 z" />
<glyph unicode="&#xff;" horiz-adv-x="933" d="M2 958h152l313 -778l313 778h152l-555 -1368h-150l164 408zM154 1255.5q0 47.5 31.5 79t78.5 31.5t80 -33t33 -78t-33 -77.5t-80 -32.5t-78.5 31.5t-31.5 79zM553 1255.5q0 47.5 33 79t78 31.5q47 0 79.5 -33t32.5 -78t-32.5 -77.5t-79.5 -32.5q-45 0 -78 31.5t-33 79z " />
<glyph unicode="&#x152;" horiz-adv-x="1699" d="M86 696q0 293 181.5 512t418.5 219q84 0 164 -30h764v-129h-629v-447h492v-125h-492v-569h635v-127h-764q-88 -33 -170 -33q-238 0 -419 218t-181 511zM248 696q0 -233 128 -410t310 -177q75 -1 145 34v1112q-66 33 -145 33q-180 0 -309 -178t-129 -414z" />
<glyph unicode="&#x153;" horiz-adv-x="1888" d="M70 479q0 207 146 359.5t329 152.5q119 0 229.5 -70.5t175.5 -185.5q66 115 176.5 185.5t229.5 70.5q182 0 328.5 -152.5t146.5 -359.5h-811q0 -158 101.5 -271.5t234.5 -113.5q147 0 213.5 41t120.5 133l110 -73q-76 -115 -172 -171.5t-268 -56.5q-117 0 -228.5 69.5 t-179.5 186.5q-66 -115 -175 -185.5t-228 -70.5q-182 0 -330.5 152.5t-148.5 359.5zM209 479.5q0 -157.5 101.5 -271.5t234.5 -114t234.5 114t101.5 271.5t-101.5 271t-234.5 113.5t-234.5 -113.5t-101.5 -271zM1040 606h631q-35 113 -123 185.5t-192.5 72.5t-192.5 -72.5 t-123 -185.5z" />
<glyph unicode="&#x178;" horiz-adv-x="968" d="M0 1397h178l307 -512l308 512h178l-412 -686v-711h-151v717zM174 1579.5q0 47.5 31.5 79t78.5 31.5t80 -33t33 -78t-33 -77.5t-80 -32.5t-78.5 31.5t-31.5 79zM573 1579.5q0 47.5 33 79t78 31.5q47 0 79.5 -33t32.5 -78t-32.5 -77.5t-79.5 -32.5q-45 0 -78 31.5t-33 79z " />
<glyph unicode="&#x2c6;" horiz-adv-x="839" d="M121 1231l276 254l279 -254l-39 -70l-240 158l-237 -158z" />
<glyph unicode="&#x2dc;" horiz-adv-x="987" d="M121 1161q12 96 78.5 181t152.5 85q53 0 96.5 -31.5t78 -64.5t65.5 -33q55 0 92 41t45 88h94q-12 -96 -78.5 -181t-152.5 -85q-53 0 -96 33t-78 65.5t-66 32.5q-55 0 -93 -42t-46 -89h-92z" />
<glyph unicode="&#x2000;" horiz-adv-x="939" />
<glyph unicode="&#x2001;" horiz-adv-x="1878" />
<glyph unicode="&#x2002;" horiz-adv-x="939" />
<glyph unicode="&#x2003;" horiz-adv-x="1878" />
<glyph unicode="&#x2004;" horiz-adv-x="626" />
<glyph unicode="&#x2005;" horiz-adv-x="469" />
<glyph unicode="&#x2006;" horiz-adv-x="313" />
<glyph unicode="&#x2007;" horiz-adv-x="313" />
<glyph unicode="&#x2008;" horiz-adv-x="234" />
<glyph unicode="&#x2009;" horiz-adv-x="375" />
<glyph unicode="&#x200a;" horiz-adv-x="104" />
<glyph unicode="&#x2010;" horiz-adv-x="681" d="M115 436v113h452v-113h-452z" />
<glyph unicode="&#x2011;" horiz-adv-x="681" d="M115 436v113h452v-113h-452z" />
<glyph unicode="&#x2012;" horiz-adv-x="681" d="M115 436v113h452v-113h-452z" />
<glyph unicode="&#x2013;" horiz-adv-x="1081" d="M115 436v113h852v-113h-852z" />
<glyph unicode="&#x2014;" horiz-adv-x="1480" d="M115 436v113h1251v-113h-1251z" />
<glyph unicode="&#x2018;" horiz-adv-x="387" d="M86 1255q0 70 19.5 131.5t47 98.5t54 64.5t47.5 39.5l18 10l33 -20q-78 -78 -108 -211h2q45 0 76.5 -32.5t31.5 -80t-30.5 -78t-77.5 -30.5t-80 31.5t-33 76.5z" />
<glyph unicode="&#x2019;" horiz-adv-x="344" d="M80 1485q0 47 31.5 78.5t79 31.5t79 -31.5t31.5 -78.5q0 -70 -19.5 -131.5t-46 -98t-53 -64.5t-47.5 -40l-18 -10l-35 20q78 78 108 211q-45 0 -77.5 33t-32.5 80z" />
<glyph unicode="&#x201a;" horiz-adv-x="419" d="M98 96q0 47 33 79t78 32t77.5 -32t32.5 -79q0 -70 -19 -131t-46 -98t-53.5 -64.5t-44.5 -40.5l-21 -10l-35 21q78 78 109 211q-45 0 -78 32.5t-33 79.5z" />
<glyph unicode="&#x201c;" horiz-adv-x="786" d="M86 1255q0 70 19.5 131.5t47 98.5t54 64.5t47.5 39.5l18 10l33 -20q-78 -78 -108 -211h2q45 0 76.5 -32.5t31.5 -80t-30.5 -78t-77.5 -30.5t-80 31.5t-33 76.5zM485 1255q0 70 19.5 131.5t46.5 98.5t54.5 64.5t45.5 39.5l21 10l33 -20q-78 -78 -109 -211h2q45 0 77 -32.5 t32 -80t-32 -78t-77 -30.5q-47 0 -80 31.5t-33 76.5z" />
<glyph unicode="&#x201d;" horiz-adv-x="743" d="M80 1485q0 47 31.5 78.5t79 31.5t79 -31.5t31.5 -78.5q0 -70 -19.5 -131.5t-46 -98t-53 -64.5t-47.5 -40l-18 -10l-35 20q78 78 108 211q-45 0 -77.5 33t-32.5 80zM479 1485q0 47 33 78.5t78 31.5t77.5 -31.5t32.5 -78.5q0 -70 -19 -131.5t-46 -98t-53.5 -64.5t-44.5 -40 l-21 -10l-35 20q78 78 109 211q-45 0 -78 33t-33 80z" />
<glyph unicode="&#x201e;" horiz-adv-x="819" d="M98 96q0 47 33 79t78 32t77.5 -32t32.5 -79q0 -70 -19 -131t-46 -98t-53.5 -64.5t-44.5 -40.5l-21 -10l-35 21q78 78 109 211q-45 0 -78 32.5t-33 79.5zM498 96q0 47 31.5 79t78.5 32t79 -32t32 -79q0 -70 -19.5 -131t-46 -98t-53.5 -64.5t-47 -40.5l-18 -10l-35 21 q78 78 108 211q-45 0 -77.5 32.5t-32.5 79.5z" />
<glyph unicode="&#x2022;" horiz-adv-x="675" d="M86 483.5q0 104.5 73.5 178t178 73.5t178.5 -73.5t74 -178t-74 -178.5t-178.5 -74t-178 74t-73.5 178.5z" />
<glyph unicode="&#x2026;" horiz-adv-x="1218" d="M98 96q0 47 33 79t78 32t77.5 -32t32.5 -79t-32.5 -79.5t-77.5 -32.5t-78 32.5t-33 79.5zM498 96q0 47 31.5 79t78.5 32t79 -32t32 -79t-33 -79.5t-78 -32.5t-77.5 32.5t-32.5 79.5zM899 96q0 47 32 79t79 32t78.5 -32t31.5 -79t-32.5 -79.5t-77.5 -32.5t-78 32.5 t-33 79.5z" />
<glyph unicode="&#x202f;" horiz-adv-x="375" />
<glyph unicode="&#x2039;" horiz-adv-x="720" d="M45 487l498 377l84 -114l-353 -263l353 -264l-84 -110z" />
<glyph unicode="&#x203a;" horiz-adv-x="722" d="M96 225l350 262l-350 265l84 112l498 -377l-498 -374z" />
<glyph unicode="&#x205f;" horiz-adv-x="469" />
<glyph unicode="&#x20ac;" horiz-adv-x="1171" d="M78 537v110h55q0 8 -1 24.5t-1 24.5q0 53 6 105h-59v110h76q49 225 187 370.5t325 145.5q129 0 223 -71.5t186 -214.5l-121 -86q-49 80 -80.5 122t-87 76.5t-120.5 34.5q-135 0 -227.5 -104.5t-129.5 -272.5h320v-110h-336q-6 -51 -6 -105q0 -8 1 -24.5t1 -24.5h340v-110 h-330q31 -188 126 -308t241 -120q102 0 166.5 64.5t134.5 193.5l133 -72q-92 -160 -193.5 -244t-240.5 -84q-199 0 -341.5 162t-181.5 408h-65z" />
<glyph unicode="&#x2122;" horiz-adv-x="1204" d="M98 1395v92h369v-92h-135v-422h-101v422h-133zM553 973v514h98l144 -357l143 357h98v-514h-102v237l-96 -237h-88l-97 237v-237h-100z" />
<glyph unicode="&#x25fc;" horiz-adv-x="962" d="M0 0v963h963v-963h-963z" />
</font>
</defs>
</svg>
